<svg xmlns="http://www.w3.org/2000/svg" viewBox="0 0 512 512"><path d="M142 325l-30-11c-6-2-10-8-10-14v-11H58v11c0 6-3 12-9 14l-30 11c-11 5-19 15-19 28v52c0 8 7 15 15 15h146v-67c0-13-8-23-19-28z" fill="#e6af78"/><path d="M80 310c9 0 16-1 24-4l-2-6v-11H58v11l-1 6c7 3 15 4 23 4z" fill="#d29b6e"/><path d="M15 420h146v-67c0-13-8-23-19-28l-29-11-22 23c-6 5-15 5-21 0l-22-23-29 11c-11 5-19 15-19 28v52c0 8 7 15 15 15z" fill="#dbd9dc"/><path d="M81 296h-1c-28 0-51-23-51-51v-22c0-29 23-51 51-51h1c28 0 50 22 50 51v22c0 28-22 51-50 51z" fill="#f0c087"/><path d="M58 245v-22c0-23 16-43 37-49a51 51 0 00-66 49v22a51 51 0 0066 49c-21-7-37-26-37-49z" fill="#e6af78"/><g fill="#edebed"><path d="M23 355L5 337c-3 5-5 10-5 16v52c0 8 7 15 15 15h14v-49c0-6-2-12-6-16zM73 339v81h15v-81c-5 3-10 3-15 0z"/></g><circle cx="80.3" cy="171.7" r="29.2" fill="#6e4b53"/><path d="M29 223v16c8-4 18-10 26-19 2-2 6-3 9-1 9 5 32 16 67 18v-14a51 51 0 00-102 0z" fill="#5c414b"/><path d="M52 180c-14 9-23 25-23 43v16c8-4 18-10 26-19l4-2c-5-10-9-24-7-38z" fill="#503441"/><path d="M496 307l-37-17c-5-2-8-7-8-13v-26h-54v26c0 6-3 11-8 13l-37 17c-9 5-16 15-16 26v87h162c8 0 14-6 14-14v-73c0-11-6-21-16-26z" fill="#fad7a5"/><path d="M496 307l-37-17-25 26c-6 5-14 5-19 0l-26-26-37 17c-9 5-16 15-16 26v87h162c8 0 14-6 14-14v-73c0-11-6-21-16-26z" fill="#dbd9dc"/><path d="M397 251v26l-2 7a60 60 0 0058 0l-2-7v-26h-54z" fill="#f0c891"/><path d="M424 278c-26 0-47-21-47-47v-41h94v41c0 26-21 47-47 47z" fill="#ffe1b4"/><path d="M404 231v-41h-27v41a47 47 0 0061 45c-20-6-34-24-34-45z" fill="#fad7a5"/><path d="M431 157h-14c-26 0-47 21-47 47v11c0 5 5 8 10 6 7-4 15-11 20-18 2-3 7-3 10-1 21 16 51 12 63 10 3-1 5-4 5-7v-1c0-26-21-47-47-47z" fill="#d59f63"/><path d="M380 221c7-4 15-11 20-18l3-2a54 54 0 01-9-38c-14 8-24 23-24 41v11c0 5 5 8 10 6z" fill="#cd915a"/><g fill="#edebed"><path d="M478 361c0-6 2-11 6-14l26-26 2 12v73c0 8-6 14-14 14h-20v-59zM417 318v102h14V318c-4 2-9 2-14 0z"/></g><path d="M342 279l-46-21c-6-3-10-9-10-16v-32h-67v32c0 7-4 13-10 16l-46 21c-12 6-20 19-20 32v91c0 10 8 18 17 18h185c9 0 17-8 17-18v-91c0-13-8-26-20-32z" fill="#b48764"/><path d="M160 420h185c9 0 17-8 17-18v-91c0-13-8-26-20-32l-46-21-32 32c-6 7-17 7-24 0l-32-32-45 21c-12 6-20 19-20 32v91c0 10 8 18 17 18z" fill="#5d5360"/><path d="M219 210v32l-3 9a75 75 0 0072 0l-2-9v-32h-67z" fill="#966d50"/><path d="M252 243c-32 0-59-26-59-58v-51h118v51c0 32-26 58-59 58z" fill="#c39772"/><path d="M227 185v-51h-34v51a59 59 0 0076 56c-24-7-42-30-42-56z" fill="#b48764"/><path d="M261 92h-17c-33 0-59 26-59 59v13c0 7 7 11 12 8 9-5 19-13 25-22 3-4 8-4 12-2 27 20 64 16 79 13 4-1 7-4 7-8v-2c0-33-27-59-59-59z" fill="#5c414b"/><path d="M197 172c9-5 19-13 25-22l4-3a68 68 0 01-11-47 59 59 0 00-30 51v13c0 7 7 11 12 8z" fill="#503441"/><g fill="#6f6571"><path d="M185 346c0-6-3-13-7-17l-32-32c-2 4-3 9-3 14v91c0 10 8 18 17 18h25v-74zM320 346c0-6 2-13 7-17l32-32c2 4 3 9 3 14v91c0 10-8 18-17 18h-25v-74zM244 293v127h17V293c-5 3-12 3-17 0z"/></g></svg>