<svg xmlns="http://www.w3.org/2000/svg" viewBox="0 0 512 512"><path d="M491 512H21c-11 0-21-10-21-21V74c0-12 10-22 21-22h470c11 0 21 10 21 22v417c0 11-10 21-21 21z" fill="#ff7058"/><path d="M475 174H37c-6 0-10 4-10 11v290c0 6 4 10 10 10h363l85-85V185c0-6-4-11-10-11z" fill="#f2f2f2"/><path d="M400 485l85-85h-75c-6 0-10 4-10 10v75z" fill="#cdd6e0"/><g fill="#fff"><circle cx="85.3" cy="92.8" r="22.4"/><circle cx="199.5" cy="92.8" r="22.4"/><circle cx="312.5" cy="92.8" r="22.4"/><circle cx="426.7" cy="92.8" r="22.4"/></g><g fill="#40596b"><path d="M85 105c-7 0-14-7-14-14V14C70 6 77 0 85 0s14 6 14 14v76c0 8-6 15-14 15zM199 105c-7 0-13-7-13-14V14c0-8 6-14 13-14 8 0 14 6 14 14v76c0 8-6 15-14 15zM313 105c-8 0-14-7-14-14V14c0-8 6-14 14-14 7 0 13 6 13 14v76c1 8-5 15-13 15zM427 105c-8 0-14-7-14-14V14c0-8 6-14 14-14 7 0 14 6 14 14v76c1 8-6 15-14 15z"/></g><g fill="#cdd6e0"><path d="M168 206h67v61h-67zM277 206h68v61h-68zM386 206h67v61h-67zM59 300h67v61H59z"/></g><path fill="#ffd15c" d="M168 300h67v61h-67z"/><g fill="#cdd6e0"><path d="M277 300h68v61h-68zM386 300h67v61h-67zM59 393h67v60H59zM168 393h67v60h-67zM277 393h68v60h-68z"/></g></svg>