<svg xmlns="http://www.w3.org/2000/svg" viewBox="0 0 512.5 512.5"><path d="M394 75v410c0 15-12 27-27 27H27c-15 1-27-11-27-26V75c0-15 12-26 27-26h340c15 0 27 13 27 26z" fill="#66c6b9"/><path fill="#fff" d="M46 91h302v376H46z"/><path d="M282 111V52c0-9-7-15-15-15h-34c0-19-16-36-37-36-19 0-35 16-35 36h-34c-9 0-15 6-15 15v59h170zm-85-87c7 0 13 6 13 13 0 6-5 13-13 13-6 0-12-6-12-13s5-13 12-13z" fill="#415a6b"/><path d="M142 220H83v-58h59v58zm-52-6h47v-47H90v47z" fill="#ced6e0"/><path d="M100 212l-6-3-24-24c-3-3-3-9 0-13 4-3 10-3 13 0l16 16 34-34c4-3 10-3 13 0 3 4 3 10 0 13l-39 43-7 2z" fill="#f3705a"/><path d="M142 328H83v-58h59v58zm-52-5h47v-47H90v47z" fill="#ced6e0"/><path d="M100 320c-2 0-4-1-6-4l-24-23c-3-3-3-10 0-13 5-2 10-2 14 1l16 16 34-34c4-3 10-3 13 0s3 10 0 13l-40 42c-1 2-5 2-7 2z" fill="#f3705a"/><path d="M142 437H83v-59h59v59zm-52-6h47v-47H90v47z" fill="#ced6e0"/><path d="M100 428l-6-3-24-23c-3-3-3-10 0-13 4-3 10-3 13 0l17 17 34-34c4-3 10-3 13 0s3 10 0 13l-40 40c-1 2-5 3-7 3z" fill="#f3705a"/><path fill="#415a6b" d="M435 64l35-47 34 25-35 47z"/><path d="M435 62c23-8 54 5 54 5L313 304c-28 37-62 70-102 97 14-45 36-87 64-125L435 62z" fill="#f3705a"/><path fill="#415a6b" d="M341 264l-25 33-37-27 25-34z"/><path d="M478 22l20 15 12-16c4-5 3-13-2-17-7-5-14-3-18 2l-12 16z" fill="#f3705a"/><path d="M473 36l-7 8-16-11-49 62c4 5 1 9-3 16-4 6-11 10-17 5-2-2-3-5-1-8l64-86c2-2 5-3 7-1l22 15z" fill="#415a6b"/></svg>