<svg xmlns="http://www.w3.org/2000/svg" viewBox="0 0 512 512"><path d="M418 367c-7-34-38-40-38-40l-78-19v-3h59c13 0 22-10 22-22V171v-54a8 8 0 10-15 0v21l-13-5c-2-7-8-14-16-15-9-1-15-6-20-15-2-4-6-6-10-7-5 0-9 2-12 5-13 18-48 57-110 57h-9c-12-1-21 8-21 20v17a102 102 0 0053 89v6h-59c-4 0-7-3-7-7V115a100 100 0 0199-100c19 0 41 6 56 14 10 5 16 1 25 1 24 0 42 24 44 45l1 7c0 7 8 7 7 7 4 0 8-3 8-7l-1-8c-3-30-28-59-59-59-11 0-13 3-17 1-18-10-43-16-64-16-62 0-114 51-114 115v168c0 12 10 22 22 22h59v3l-77 19h-1l-5 2h-1c-10 4-27 14-32 38L72 477c-3 19 7 35 30 35h81a7 7 0 100-15h-28v-71a7 7 0 10-15 0v71h-38c-10 0-15-3-16-14l23-113c3-17 15-24 22-27l5-1 45-11 49 57c16 16 40 15 55-3l46-54 45 11c1 0 23 4 27 28l23 113c-1 11-6 14-16 14h-38v-71a7 7 0 10-15 0v71H218a7 7 0 100 15h192c18 0 30-10 31-29 0-8-1-4-23-116zm-62-218c6 2 11 6 12 11v8c-1 6-6 10-12 12v-31zm0 47v-1l12-5v93c0 4-3 7-7 7h-59v-5c32-17 54-50 54-89zm-158 61a87 87 0 01-26-62c0-16-1-18 1-21l4-1c54 3 100-20 130-60 9 14 21 19 30 20 2 0 4 2 4 5v58c0 75-90 112-143 61zm76 118c-11 13-25 13-36 0l-15-18h66l-15 18zm28-33h-92l-13-15 22-6c3-1 6-4 6-7v-23c20 6 42 6 62 0l1 25c1 3 2 5 5 5l22 6-13 15z"/></svg>