<svg xmlns="http://www.w3.org/2000/svg" viewBox="0 0 512 512"><path d="M325 419h-28c-9 0-16 7-16 16v20c0 14 13 26 30 26s30-12 30-26v-20c0-9-7-16-16-16zm1 36c0 6-7 11-15 11s-15-5-15-11c0-19-1-21 1-21h28l1 1v20z"/><path d="M440 477l-8-43a7 7 0 10-15 3l8 42c1 3 1 10-2 14-6 7-19 3-51 4v-71a7 7 0 10-15 0v71H155v-71a7 7 0 10-15 0v71h-38c-12 0-17-5-15-18l22-109c4-24 26-28 27-28l75-19c12 46 78 46 90 0l74 19c2 0 24 4 28 28l7 32a8 8 0 0015-3l-7-32c-5-24-22-34-32-38l-84-21v-12c32-16 54-49 54-88v-1c25-5 36-30 22-48v-54s0-16-8-33c-7-16-22-37-55-45-25-6-38-15-45-22-8-7-20-7-28 0-7 7-20 16-45 22-15 4-28 10-38 20a7 7 0 1010 11c9-8 19-13 32-17 27-6 43-17 51-25h8c8 8 24 19 51 25 51 13 52 62 52 64v43l-7-3c-1-3 3-23-15-32-77-40-144-14-170-1-9 4-14 13-14 23v10l-8 3c0-41-1-47 4-63a7 7 0 10-14-5c-5 14-5 25-5 25v54c-14 18-2 43 23 48 0 1-2 41 31 73 7 7 14 12 22 16v12l-78 19s-31 6-38 40L72 477c-3 20 8 35 30 35h308c10 0 19-3 24-9 6-7 8-18 6-26zm-84-316c18 5 18 25 0 31v-31zm-199 31c-18-6-18-26 0-31v31zm130 121a31 31 0 01-62 1v-11c19 6 41 7 62 0v10zM172 207v-72c0-4 2-8 6-10a170 170 0 01156 1c4 2 7 6 7 11v71a85 85 0 11-169-1z"/></svg>