<svg xmlns="http://www.w3.org/2000/svg" viewBox="0 0 512 512"><path d="M508 193a9 9 0 10-18 4l3 18-59 58a9 9 0 0013 13l47-47a220 220 0 01-110 190c9-30 13-60 11-91l28-28a9 9 0 00-12-13l-18 18-1-3c-8-45-29-86-60-120L436 89c20 21 35 46 45 74a9 9 0 1017-6 238 238 0 00-441-16 9 9 0 0012 12 220 220 0 01290 290 9 9 0 0012 12 237 237 0 00137-262zm-308-73l-3-1 58-58a9 9 0 00-13-12l-68 68c-31-2-61 1-91 11A220 220 0 01273 18l-11 11a9 9 0 0013 12l22-22c46 5 90 24 126 57L320 180c-34-32-75-52-120-60zM345 450c-1-4-5-8-10-7L20 492l49-315a9 9 0 10-18-3L0 502a9 9 0 0010 10l328-51c4-1 8-6 7-11z"/></svg>