<svg xmlns="http://www.w3.org/2000/svg" viewBox="0 0 467.5 467.5"><path d="M431 410l-72-124a169 169 0 00-5-236 170 170 0 00-241 0 170 170 0 00-5 236L37 410c-2 2-2 4-1 7 1 5 6 7 11 5l57-23 9 61c0 3 1 5 4 6 4 3 9 1 11-3l73-125a174 174 0 0064 0l73 125c2 4 7 5 11 3 3-1 4-3 4-6l9-61 57 23c5 2 10 0 11-5 3-3 2-5 1-7zm-304 24l-8-48c0-4-4-8-9-7l-3 1-44 17 58-99c18 16 39 28 63 35l-57 101zm107-110A153 153 0 01125 62a153 153 0 11217 216c-27 29-66 46-108 46zm126 56l-2-1c-5-1-9 2-10 7l-7 48-58-101c24-7 46-19 64-35l58 99-45-17z"/><path d="M312 141c-2-3-4-5-7-6l-9-2h-33l-11-33c-1-4-5-8-9-11l-9-2-9 2c-4 3-7 6-9 11l-10 33h-33l-10 2-7 6c-3 4-4 9-3 14s3 9 8 12l28 20-11 33-1 1a18 18 0 004 16c3 4 7 7 12 7s10 0 14-3l28-21 28 21c4 3 9 4 14 3 5 0 9-3 12-7l4-8v-8l-1-1-11-33 28-20c5-3 7-7 8-12 0-5-2-10-5-14zm-14 13l-33 24c-2 2-4 6-3 9l13 38v1l-1 1-1 1h-2l-33-24c-1-2-3-2-5-2s-4 0-5 2l-33 24h-2l-1-1-1-1v-1l13-38c1-4 0-7-3-9l-31-24h-1v-2-1-1h43c3 0 7-3 8-6l12-39 1-1h2l1 1 13 39c1 3 4 6 8 6h42v1l1 1-2 2z"/><path d="M328 76a132 132 0 00-188 0 132 132 0 000 188 132 132 0 00188 0 132 132 0 000-188zm-12 176A116 116 0 11152 88a116 116 0 01164 164z"/></svg>