<?xml version="1.0" standalone="no"?>
<!DOCTYPE svg PUBLIC "-//W3C//DTD SVG 20010904//EN"
 "http://www.w3.org/TR/2001/REC-SVG-20010904/DTD/svg10.dtd">
<svg version="1.0" xmlns="http://www.w3.org/2000/svg"
 width="150.000000pt" height="150.000000pt" viewBox="0 0 150.000000 150.000000"
 preserveAspectRatio="xMidYMid meet">
<metadata>
Created by potrace 1.11, written by Peter Selinger 2001-2013
</metadata>
<g transform="translate(0.000000,150.000000) scale(0.100000,-0.100000)"
fill="#000000" stroke="none">
<path d="M478 1344 c-170 -41 -267 -85 -328 -149 l-35 -37 32 16 c47 24 48 20
4 -25 -59 -62 -120 -183 -139 -279 -4 -19 -7 -80 -6 -135 0 -158 55 -291 166
-407 149 -155 367 -220 578 -172 74 18 181 70 230 114 l35 31 -32 -16 c-39
-18 -150 -45 -157 -38 -3 3 11 14 30 25 20 11 47 30 61 42 l25 24 -55 -19
c-73 -24 -138 -29 -214 -13 -255 52 -406 311 -327 561 14 45 25 60 58 81 135
85 352 100 489 33 44 -22 48 -14 10 19 -79 69 -195 127 -264 132 -17 1 -33 6
-35 10 -6 10 110 2 171 -12 120 -26 247 -116 320 -225 20 -30 37 -55 39 -55 9
0 -37 141 -60 185 -31 60 -98 144 -139 174 l-30 23 35 -7 c19 -4 59 -18 88
-31 28 -12 52 -21 52 -18 0 9 -73 70 -124 102 -80 51 -163 73 -301 77 -80 2
-139 -1 -177 -11z"/>
<path d="M1070 833 c-26 -9 -61 -47 -81 -84 -22 -43 -87 -98 -120 -101 -40 -5
-37 34 5 68 60 50 68 114 14 114 -22 0 -66 -42 -89 -86 -16 -31 -124 -95 -146
-87 -18 7 -16 38 4 76 16 30 18 30 21 10 5 -34 20 -28 28 11 11 64 -21 75 -74
26 -39 -36 -80 -43 -74 -14 6 28 -26 64 -56 64 -88 0 -151 -184 -76 -219 24
-10 29 -8 63 26 20 21 43 48 51 60 8 11 26 24 39 28 22 7 23 5 18 -21 -3 -16
1 -41 9 -56 21 -40 67 -38 133 6 49 33 51 34 51 13 1 -68 81 -80 143 -21 16
14 29 24 30 23 19 -35 28 -44 49 -47 14 -2 32 4 41 12 13 14 17 13 31 -8 12
-19 13 -26 3 -35 -8 -6 -11 -25 -9 -46 5 -39 25 -61 22 -24 -1 13 -1 29 0 34
1 6 3 15 5 20 1 6 3 15 3 20 1 6 11 11 22 12 23 2 80 40 80 54 0 5 5 9 10 9 6
0 10 -6 9 -12 -6 -52 13 -49 37 4 23 51 62 100 74 93 5 -3 -2 -29 -15 -58 -14
-28 -25 -68 -25 -88 0 -66 67 -69 123 -6 28 31 78 110 73 115 -3 2 -34 -26
-70 -62 -36 -36 -71 -66 -77 -66 -15 0 -3 46 20 79 10 14 26 41 35 59 16 31
16 36 1 58 -18 28 -36 30 -71 8 -22 -15 -24 -15 -18 -1 3 9 3 21 0 26 -12 19
-35 0 -64 -53 -32 -56 -107 -130 -122 -121 -13 8 -13 42 0 50 6 3 10 19 10 36
0 36 -30 40 -53 7 -8 -13 -29 -38 -46 -57 -26 -29 -31 -31 -31 -15 0 23 47
100 77 127 18 16 22 16 33 2 12 -15 30 -12 30 5 0 5 -7 16 -16 24 -16 16 -37
19 -64 9z m-550 -54 c15 -27 -3 -48 -37 -46 -34 3 -38 18 -13 45 26 27 36 28
50 1z m365 -9 c-10 -11 -20 -18 -23 -15 -7 6 18 35 31 35 5 0 2 -9 -8 -20z
m-385 -82 c-1 -15 -38 -63 -44 -57 -4 4 -9 48 -7 62 2 12 51 8 51 -5z"/>
<path d="M963 556 c3 -64 17 -69 17 -8 0 29 -4 52 -10 52 -5 0 -8 -20 -7 -44z"/>
<path d="M1046 589 c-8 -23 -1 -82 9 -86 6 -2 9 17 8 43 -2 48 -9 67 -17 43z"/>
<path d="M913 572 c-7 -5 -11 -76 -4 -89 0 -2 10 5 21 14 34 30 19 98 -17 75z
m23 -37 c1 -8 -2 -17 -7 -21 -5 -3 -9 7 -9 22 0 27 12 26 16 -1z"/>
<path d="M996 573 c-12 -13 -5 -22 12 -16 16 6 16 5 0 -14 -24 -26 -23 -43 2
-43 16 0 20 7 20 34 0 31 -19 53 -34 39z m24 -53 c0 -5 -2 -10 -4 -10 -3 0 -8
5 -11 10 -3 6 -1 10 4 10 6 0 11 -4 11 -10z"/>
<path d="M1122 568 c-17 -17 -15 -58 3 -65 20 -7 26 -1 29 31 4 31 -15 51 -32
34z m15 -45 c-3 -10 -5 -4 -5 12 0 17 2 24 5 18 2 -7 2 -21 0 -30z"/>
<path d="M1171 537 c2 -34 3 -36 6 -12 3 16 9 33 15 36 5 4 3 9 -6 12 -13 5
-16 -1 -15 -36z"/>
<path d="M1222 571 c-12 -8 -21 -71 -10 -71 4 0 8 14 8 30 0 40 18 38 23 -2
l4 -33 1 33 c1 17 6 32 11 32 6 0 12 -15 14 -32 4 -28 4 -26 3 6 -1 33 -5 40
-23 41 -12 1 -26 -1 -31 -4z"/>
</g>
</svg>
